<svg width="222" height="57" viewBox="0 0 222 57" fill="none" xmlns="http://www.w3.org/2000/svg">
<path fill-rule="evenodd" clip-rule="evenodd" d="M54.1094 1.87554C53.5623 2.98514 52.913 3.40504 52.2392 3.40504C51.4916 3.40504 51.1697 3.1631 50.595 2.73121C50.2964 2.50685 49.9297 2.23123 49.3996 1.91164C47.5425 0.802044 45.4603 -0.0510558 43.272 0.000244295C41.7793 0.0309803 40.3209 0.454906 39.043 1.22954C37.6347 2.07596 36.5133 3.32869 35.8249 4.82434C35.0317 6.57044 34.9541 8.40964 35.274 10.2773C35.664 12.5573 36.4874 14.6929 37.3336 16.8247C37.7238 17.8052 38.1207 18.7832 38.5175 19.7612L38.5178 19.7619L38.5181 19.7626L38.5183 19.7633L38.5186 19.764L38.5189 19.7647C39.3843 21.8976 40.2498 24.0308 41.0477 26.1898C42.2252 29.3742 42.8914 32.6669 42.6548 36.1021C42.5034 38.2966 42.1911 40.4607 41.5077 42.5621C39.5333 48.625 35.6072 52.7043 29.6063 54.9368C24.8265 56.7133 20.3894 56.8938 15.5149 55.4099C9.68057 53.6353 5.89267 50.0082 4.05456 44.1581C3.10805 41.1637 3.10805 38.1104 3.68732 35.0533C4.41802 31.1602 5.99678 27.6851 8.84576 24.875C10.5097 23.2315 12.4425 22.0801 14.6951 21.5538L14.8182 21.1339C14.574 21.1795 14.3317 21.2327 14.0932 21.2973C9.79982 22.4696 6.22962 24.78 3.53397 28.3273C-0.0987004 33.1001 -0.888083 38.4182 0.970849 44.0802C2.3111 48.169 5.0446 51.1938 8.66024 53.432C11.5869 55.2408 14.7879 56.2706 18.1859 56.7247C21.0045 57.1047 23.3576 57.1275 26.1459 56.5461C33.6915 54.9691 39.522 50.9297 43.4007 44.1961C45.0916 41.2486 46.0288 37.9268 46.1285 34.527C46.2194 32.1463 45.765 29.8511 45.1215 27.5825C44.2907 24.6605 43.1459 21.8537 42.0013 19.0475L41.9996 19.0432L41.9978 19.0388L41.9966 19.036C41.8701 18.7258 41.7436 18.4156 41.6175 18.1053C40.5214 15.413 39.4405 12.7112 38.4277 9.98474C37.8599 8.43434 37.4509 6.82504 37.6384 5.13404C37.7766 3.90284 38.2499 2.83694 39.1925 2.01614C40.6766 0.724144 42.8876 0.484744 44.7693 0.762144C46.5702 1.03809 48.1966 1.99783 49.3126 3.44304C49.5713 3.77589 49.8048 4.12774 50.0111 4.49564C51.2321 6.66544 51.6163 9.36534 51.0712 12.5858L51.6069 12.6542L54.4634 1.92114L54.1094 1.87554ZM18.8391 39.3224C18.3298 41.7088 17.1145 42.9267 15.2423 43.073L15.1023 43.6088H23.8971L24.0372 43.073C22.3997 42.9267 21.5044 41.7088 22.0723 39.3718L28.2548 12.6787C28.8568 9.94458 29.9339 9.11617 31.8516 9.06867L31.9917 8.53287H23.1949L23.0548 9.06867C24.9724 9.21877 25.5876 10.2923 25.0197 12.6787L18.8391 39.3224ZM51.7696 39.3224C51.2604 41.7088 50.0451 42.9267 48.173 43.073L48.0329 43.6088H56.8278L56.9678 43.073C55.3304 42.9267 54.435 41.7088 55.0029 39.3718L61.1931 12.6787C61.7969 9.94458 62.8722 9.11617 64.7897 9.06867L64.9298 8.53287H56.1274L55.9853 9.06867C57.903 9.21877 58.5183 10.2923 57.9503 12.6787L51.7696 39.3224ZM163.207 9.07437L163.349 8.53857L156.776 8.54997C156.616 9.26386 156.397 9.96298 156.121 10.64C155.515 12.1429 153.091 16.9651 148.841 25.0515L145.166 32.0644L140.97 39.957L137.657 8.53857H130.897L130.805 9.07437C133.369 9.12187 134.159 10.5355 133.274 13.2639L126.75 38.6403C125.818 41.515 124.139 43.0255 121.668 43.073L121.528 43.6088H130.386L130.525 43.073C127.869 42.9267 126.703 41.515 127.635 38.5928L134.627 11.2651L137.94 44.4429C138.913 43.8759 139.945 43.4183 141.017 43.0787C141.017 41.9159 141.483 40.5859 142.649 38.3059L145.166 33.3868L147.077 29.7768C147.3 29.3507 147.524 28.9285 147.746 28.5102L147.749 28.5042C148.312 27.4418 148.861 26.4045 149.361 25.3916L156.634 11.6071L152.431 39.3718C152.112 41.7088 150.759 43.0255 149.035 43.073L148.895 43.6088H157.613L157.753 43.073C156.076 42.9761 155.423 41.6613 155.749 39.1761L159.479 13.1651C159.851 10.2429 161.156 9.12187 163.207 9.07437ZM189.663 18.5535H189.097C188.909 16.3609 188.369 12.7756 187.856 11.8503C187.343 10.8756 186.458 10.1935 185.15 9.76027C183.902 9.30997 181.857 9.11997 179.006 9.11997H173.556L170.334 23.199H176.627C179.798 23.199 181.196 21.983 181.896 19.399H182.462L180.497 27.778H179.983C180.549 24.7095 179.751 23.788 176.44 23.788H170.193L165.998 42.0546C167.443 42.6873 169.394 43.0293 171.872 43.0293C175.229 43.0293 178.082 42.4441 179.985 41.3193C181.888 40.1945 184.766 36.3793 186.589 32.9783H187.194L181.345 44.1883C179.993 43.7994 178.128 43.6043 175.75 43.6031H159.749L159.891 43.0673C161.802 42.921 162.874 41.9482 163.434 39.4155L169.594 12.6293C170.16 10.0966 169.547 9.21877 167.683 9.07437L167.822 8.53857H182.46C185.305 8.53857 187.496 8.19657 188.941 7.56387L189.663 18.5535ZM221.905 9.07436L222 8.53856L213.421 8.54046L213.327 9.07626C216.173 9.22066 217.012 10.6343 216.217 14.288L210.39 39.52L198.719 8.53666H192.891L192.75 9.07246C195.503 9.16936 196.482 11.0694 195.594 14.82L190.669 37.6656C189.832 41.1236 187.965 42.9742 185.073 43.1205L184.981 43.6069H194.446L194.539 43.1205C191.789 42.9248 190.808 41.1236 191.601 37.6656L196.668 12.7756L208.526 44.6329C209.432 43.843 210.434 43.172 211.508 42.636C211.034 41.0846 211.002 39.4301 211.417 37.8613L217.012 14.2861C217.944 10.3892 219.294 9.12186 221.905 9.07436ZM99.6115 8.53857L99.47 9.07437C97.4192 9.12187 96.1137 10.2429 95.742 13.1651L92.0103 39.1761C91.6858 41.6613 92.3385 42.9761 94.0157 43.073L93.8762 43.6088H85.1581L85.2977 43.073C87.0221 43.0255 88.3749 41.7088 88.6936 39.3718L92.897 11.6071L85.6242 25.3916C85.1205 26.4087 84.569 27.4504 84.0041 28.5175L84.0039 28.5179C83.7838 28.9337 83.5616 29.3533 83.3395 29.7768L81.4284 33.3868L78.9116 38.3059C77.7456 40.5859 77.2796 41.9159 77.2796 43.0787C76.2073 43.4183 75.1755 43.8759 74.2026 44.4429L70.8897 11.2651L63.8979 38.5928C62.9659 41.515 64.1319 42.9267 66.7882 43.073L66.6486 43.6088H57.791L57.9306 43.073C60.402 43.0255 62.0811 41.515 63.0112 38.6403L69.537 13.2639C70.4219 10.5355 69.6313 9.12187 67.0655 9.07437L67.1599 8.53857H73.9196L77.2325 39.957L81.4284 32.0644L85.111 25.0515C89.3539 16.9651 91.7782 12.1429 92.3839 10.64C92.6602 9.96329 92.8786 9.26409 93.0367 8.54997L99.6115 8.53857ZM125.36 18.5535H125.926L125.202 7.55626C123.757 8.18896 121.566 8.53097 118.721 8.53097H104.083L103.942 9.06677C105.807 9.21117 106.421 10.089 105.855 12.6217L99.7004 39.4117C99.1401 41.9444 98.0685 42.9172 96.1574 43.0635L96.0159 43.5993H112.014C114.393 43.6005 116.257 43.7956 117.608 44.1845L123.457 32.9745H122.851C121.029 36.3755 118.152 40.1907 116.248 41.3155C114.344 42.4403 111.492 43.0255 108.135 43.0255C105.656 43.0255 103.706 42.6835 102.261 42.0508L106.456 23.788H112.712C116.023 23.788 116.821 24.7095 116.256 27.778H116.769L118.734 19.3971H118.169C117.469 21.9811 116.071 23.1971 112.899 23.1971H106.605L109.813 9.11996H115.269C118.112 9.11996 120.165 9.30996 121.413 9.76026C122.719 10.1935 123.606 10.8756 124.119 11.8503C124.632 12.7756 125.172 16.3609 125.36 18.5535Z" />
</svg>
